<svg width="1080" height="1080" viewBox="0 0 1080 1080" fill="none" xmlns="http://www.w3.org/2000/svg">
<g clip-path="url(#clip0_6_5529)">
<path d="M890 432C1000.46 432 1090 342.457 1090 232C1090 121.543 1000.46 32 890 32C779.543 32 690 121.543 690 232C690 342.457 779.543 432 890 432Z" fill="#F5F5F5"></path>
<path d="M376.5 956C581.122 956 747 790.122 747 585.5C747 380.878 581.122 215 376.5 215C171.878 215 6 380.878 6 585.5C6 790.122 171.878 956 376.5 956Z" fill="#C5D9FB"></path>
<path d="M469.613 613.766H458.736V1029.68H469.613V613.766Z" fill="#C5D9FB"></path>
<path d="M672.135 816.283H256.219V827.16H672.135V816.283Z" fill="#C5D9FB"></path>
<path d="M607.097 670.913L313.003 965.007L320.694 972.698L614.788 678.603L607.097 670.913Z" fill="#C5D9FB"></path>
<path d="M320.694 670.914L313.003 678.605L607.096 972.698L614.787 965.008L320.694 670.914Z" fill="#C5D9FB"></path>
<path d="M464.176 1051.43C337.574 1051.43 234.466 948.325 234.466 821.724C234.466 695.122 337.574 592.013 464.176 592.013C590.777 592.013 693.887 695.122 693.887 821.724C693.887 948.325 590.995 1051.43 464.176 1051.43ZM464.176 635.518C361.502 635.518 277.972 719.05 277.972 821.724C277.972 924.397 361.502 1007.93 464.176 1007.93C566.849 1007.93 650.382 924.397 650.382 821.724C650.382 719.05 566.849 635.518 464.176 635.518Z" fill="#072F73"></path>
<path d="M597.03 722.121L531.139 1012.75L552.352 1017.55L618.243 726.931L597.03 722.121Z" fill="#072F73"></path>
<path d="M1029.53 425.603C1040.34 425.603 1049.11 416.838 1049.11 406.025C1049.11 395.213 1040.34 386.448 1029.53 386.448C1018.72 386.448 1009.95 395.213 1009.95 406.025C1009.95 416.838 1018.72 425.603 1029.53 425.603Z" fill="#C5D9FB"></path>
<path d="M1029.53 386.232H926.205V425.605H1029.53V386.232Z" fill="#C5D9FB"></path>
<path d="M692.145 387.319H997.556L912.284 730.797H606.875L692.145 387.319Z" fill="#0C4EC0"></path>
<path d="M592.082 259.194H755.883C761.973 259.194 766.759 254.408 766.759 248.318L767.192 126.501C767.192 120.411 762.407 115.625 756.316 115.625H592.517C586.426 115.625 581.641 120.411 581.641 126.501L581.205 248.318C581.205 254.408 585.991 259.194 592.082 259.194Z" fill="#8C3A03"></path>
<path d="M614.052 124.977H677.136V49.4949H614.052C607.961 49.4949 603.176 54.2805 603.176 60.3713V114.1C603.176 120.191 608.179 124.977 614.052 124.977Z" fill="#8C3A03"></path>
<path d="M650.815 21.2175L761.754 19.9121L770.239 28.3955L772.631 237.223L690.624 238.093L690.189 204.594L652.773 205.029C649.51 201.767 647.552 200.025 644.289 196.545L642.549 29.7009L650.815 21.2175Z" fill="#FCAA73"></path>
<path d="M657.774 158.694C657.122 158.694 656.47 158.259 656.035 157.824C655.6 157.172 655.6 156.519 655.818 155.867L674.089 112.795C674.524 111.708 675.829 111.273 676.917 111.708C678.004 112.143 678.439 113.449 678.004 114.536L661.037 154.344L678.223 154.126C679.311 154.126 680.398 154.996 680.398 156.301C680.398 157.606 679.528 158.476 678.223 158.476L657.774 158.694Z" fill="#F06305"></path>
<path d="M750.007 113.666L678.439 35.3552L642.982 85.8213L642.33 29.917L650.812 21.2158L761.752 20.1282L770.453 28.3939L771.324 113.666H750.007Z" fill="#8C3A03"></path>
<path d="M685.186 557.425H402.615C362.154 557.425 329.307 590.272 329.307 630.732C329.307 630.949 329.307 631.168 329.307 631.385L275.796 947.454H422.409L464.827 696.644H653.644C663.215 701.212 674.091 703.822 685.403 703.822C725.863 703.822 758.71 670.975 758.71 630.514C758.493 590.271 725.646 557.425 685.186 557.425Z" fill="url(#paint0_linear_6_5529)"></path>
<path d="M912.285 730.795H564.457V696.644H920.769L912.285 730.795Z" fill="#0C4EC0"></path>
<path d="M412.403 947.456H298.2C296.678 954.417 274.926 976.822 247.952 978.563C196.615 982.043 217.279 1006.62 217.279 1006.62H405.442L412.403 947.456Z" fill="url(#paint1_linear_6_5529)"></path>
<path d="M522.472 947.456H408.27C406.747 954.417 384.996 976.822 357.805 978.563C306.468 982.043 327.132 1006.62 327.132 1006.62H515.294L522.472 947.456Z" fill="#072F73"></path>
<path d="M387.387 947.454H534.002L585.774 631.385H439.158L387.387 947.454Z" fill="#0096FA"></path>
<path d="M512.467 704.04C552.953 704.04 585.775 671.218 585.775 630.732C585.775 590.245 552.953 557.425 512.467 557.425C471.98 557.425 439.159 590.245 439.159 630.732C439.159 671.218 471.98 704.04 512.467 704.04Z" fill="#0096FA"></path>
<path d="M795.036 696.862C835.523 696.862 868.342 664.042 868.342 623.556C868.342 583.069 835.523 550.248 795.036 550.248C754.55 550.248 721.729 583.069 721.729 623.556C721.729 664.042 754.55 696.862 795.036 696.862Z" fill="#0096FA"></path>
<path d="M795.038 557.425H512.467V696.644H795.038V557.425Z" fill="#0096FA"></path>
<path d="M867.475 635.519L873.348 545.462H772.197L867.475 635.519Z" fill="#0096FA"></path>
<path d="M752.4 613.766H741.523V1029.68H752.4V613.766Z" fill="#C5D9FB"></path>
<path d="M954.922 816.283H539.006V827.16H954.922V816.283Z" fill="#C5D9FB"></path>
<path d="M889.861 670.862L595.767 964.956L603.457 972.647L897.551 678.553L889.861 670.862Z" fill="#C5D9FB"></path>
<path d="M603.452 670.818L595.762 678.508L889.855 972.602L897.546 964.911L603.452 670.818Z" fill="#C5D9FB"></path>
<path d="M746.963 1051.43C620.361 1051.43 517.253 948.325 517.253 821.724C517.253 695.122 620.361 592.013 746.963 592.013C873.565 592.013 976.675 695.122 976.675 821.724C976.675 948.325 873.565 1051.43 746.963 1051.43ZM746.963 635.518C644.289 635.518 560.759 719.05 560.759 821.724C560.759 924.397 644.289 1007.93 746.963 1007.93C849.636 1007.93 933.169 924.397 933.169 821.724C933.169 719.05 849.636 635.518 746.963 635.518Z" fill="#072F73"></path>
<path d="M937.736 568.518H606.875V602.671H937.736V568.518Z" fill="#C5D9FB"></path>
<path d="M690.188 204.813H725.428L690.404 224.608L690.188 204.813Z" fill="url(#paint2_linear_6_5529)"></path>
<path d="M851.375 259.194H766.757C760.666 259.194 755.881 254.408 755.881 248.317V124.326C755.881 118.235 760.666 113.449 766.757 113.449H851.375C857.466 113.449 862.251 118.235 862.251 124.326V248.317C862.251 254.408 857.466 259.194 851.375 259.194Z" fill="#8C3A03"></path>
<path d="M812.439 124.977H765.67C759.58 124.977 754.794 120.191 754.794 114.1V60.3713C754.794 54.2805 759.58 49.4949 765.67 49.4949H812.439C818.53 49.4949 823.316 54.2805 823.316 60.3713V114.1C823.316 120.191 818.312 124.977 812.439 124.977Z" fill="#8C3A03"></path>
<path d="M736.956 156.518H774.805C779.59 156.518 783.289 152.603 783.289 148.034V113.665H736.956V156.518Z" fill="#FCAA73"></path>
<path d="M679.312 258.759L592.082 259.194C585.991 259.194 581.205 254.409 581.205 248.318V215.906C581.205 209.815 585.991 205.03 592.082 205.03L690.188 204.594V247.882C690.188 253.973 685.403 258.759 679.312 258.759Z" fill="#8C3A03"></path>
<path d="M576.637 1006.62H189V1040.77H576.637V1006.62Z" fill="#0C4EC0"></path>
<path d="M930.087 360.635C924.367 328.293 901.369 301.799 870.269 291.655L763.503 256.449V229H679.497V256.449L665.913 260.984L572.731 291.655C541.631 301.919 518.633 328.413 512.913 360.635L478 556H679.616H763.742H965L930.087 360.635Z" fill="#F06305"></path>
<path d="M839.496 556H965L949.268 466H824L839.496 556Z" fill="#FCAA73"></path>
<path d="M809.7 395L839 556H699L809.7 395Z" fill="url(#paint3_linear_6_5529)"></path>
<path d="M629.891 529H346.324C340.493 529 336.09 534.215 337.161 539.777L338.946 548.7C339.779 552.987 343.587 556 348.109 556H631.676C637.507 556 641.91 550.785 640.839 545.223L639.054 536.3C638.221 532.013 634.413 529 629.891 529Z" fill="#072F73"></path>
<path d="M163.323 347H475.79C480.193 347 484 350.101 484.952 354.515L521.839 544.906C522.91 550.632 518.507 556 512.677 556H200.21C195.807 556 192 552.898 191.048 548.485L154.161 358.094C153.09 352.368 157.493 347 163.323 347Z" fill="#0C4EC0"></path>
<path d="M921 556L841.5 495L666 441.5L633.5 498.5L887 617L921 556Z" fill="#FCAA73"></path>
<path d="M824 473L827.462 492.043L920.706 556H965L959.866 526.178L824 473Z" fill="url(#paint4_linear_6_5529)"></path>
<path d="M745.5 469.177L618.66 425L558.277 444.087L522 471.218L532.382 481.422L555.413 471.458L529.996 496.188L543.599 505.431L600.163 469.177L564.602 509.873L575.342 517.796L618.302 489.345L592.049 518.396L601.356 526.079L643.6 498.589L697.5 526L745.5 469.177Z" fill="#FCAA73"></path>
<path d="M902.996 621.992C937.235 621.992 964.992 594.235 964.992 559.996C964.992 525.756 937.235 498 902.996 498C868.756 498 841 525.756 841 559.996C841 594.235 868.756 621.992 902.996 621.992Z" fill="#FCAA73"></path>
<path d="M224.36 93H489.143C495.391 93 500.503 98.1116 500.503 104.359V123.783H519.927C529.241 123.783 534.012 135.143 527.31 141.731L500.503 168.539V269.068C500.503 275.315 495.391 280.427 489.143 280.427H224.36C218.112 280.427 213 275.315 213 269.068V104.359C213 98.1116 217.999 93 224.36 93Z" fill="url(#paint5_linear_6_5529)"></path>
</g>
<defs>
<linearGradient id="paint0_linear_6_5529" x1="294.492" y1="613.036" x2="691.204" y2="892.979" gradientUnits="userSpaceOnUse">
<stop offset="0.0262009" stop-color="#0096FA"></stop>
<stop offset="0.641" stop-color="#1968F0"></stop>
</linearGradient>
<linearGradient id="paint1_linear_6_5529" x1="262.039" y1="926.112" x2="391.412" y2="1051.04" gradientUnits="userSpaceOnUse">
<stop offset="0.2603" stop-color="#072F73"></stop>
<stop offset="0.3664" stop-color="#072C6D"></stop>
<stop offset="0.5132" stop-color="#06255B"></stop>
<stop offset="0.6836" stop-color="#04193D"></stop>
<stop offset="0.8706" stop-color="#010915"></stop>
<stop offset="0.9558"></stop>
</linearGradient>
<linearGradient id="paint2_linear_6_5529" x1="707.971" y1="214.751" x2="698.422" y2="180.9" gradientUnits="userSpaceOnUse">
<stop stop-color="#FCAA73"></stop>
<stop offset="0.1097" stop-color="#FBA66C"></stop>
<stop offset="0.2687" stop-color="#F99959"></stop>
<stop offset="0.4576" stop-color="#F68539"></stop>
<stop offset="0.6679" stop-color="#F1690E"></stop>
<stop offset="0.7058" stop-color="#F06305"></stop>
</linearGradient>
<linearGradient id="paint3_linear_6_5529" x1="731.083" y1="454.878" x2="859.479" y2="565.456" gradientUnits="userSpaceOnUse">
<stop offset="0.1453" stop-color="#F06305"></stop>
<stop offset="0.3114" stop-color="#E15D05"></stop>
<stop offset="0.6314" stop-color="#B94C04"></stop>
<stop offset="0.9417" stop-color="#8C3A03"></stop>
</linearGradient>
<linearGradient id="paint4_linear_6_5529" x1="916.874" y1="463.756" x2="859.514" y2="593.036" gradientUnits="userSpaceOnUse">
<stop offset="0.2814" stop-color="#F8BC9A" stop-opacity="0"></stop>
<stop offset="0.297" stop-color="#F8B995" stop-opacity="0.030735"></stop>
<stop offset="0.5359" stop-color="#F48B48" stop-opacity="0.4999"></stop>
<stop offset="0.7062" stop-color="#F16E18" stop-opacity="0.8344"></stop>
<stop offset="0.7905" stop-color="#F06305"></stop>
</linearGradient>
<linearGradient id="paint5_linear_6_5529" x1="372" y1="339" x2="456" y2="39.0001" gradientUnits="userSpaceOnUse">
<stop offset="0.263884" stop-color="#F5F5F5"></stop>
<stop offset="0.987855" stop-color="#C5D9FB"></stop>
</linearGradient>
<clipPath id="clip0_6_5529">
<rect width="1080" height="1080" fill="white"></rect>
</clipPath>
</defs>
</svg>