<svg width="1080" height="1080" viewBox="0 0 1080 1080" fill="none" xmlns="http://www.w3.org/2000/svg">
<g clip-path="url(#clip0_6_6064)">
<path d="M270 464C391.503 464 490 365.503 490 244C490 122.497 391.503 24 270 24C148.497 24 50 122.497 50 244C50 365.503 148.497 464 270 464Z" fill="#C5D9FB"></path>
<path d="M569.324 412.648C615.895 412.648 653.648 374.895 653.648 328.324C653.648 281.753 615.895 244 569.324 244C522.753 244 485 281.753 485 328.324C485 374.895 522.753 412.648 569.324 412.648Z" fill="#072F73"></path>
<path d="M934.624 1079.73C966.754 1017.1 984.784 946.194 984.784 870.953C984.784 617.981 779.804 413 526.831 413C273.859 413 68.8789 617.981 68.8789 870.953C68.8789 946.194 87.0452 1017.1 119.04 1079.73H934.624Z" fill="#0096FA"></path>
<path d="M537.813 724.811H745.505C758.249 724.811 768.688 714.372 768.688 701.629V544.64C768.688 531.896 758.249 521.458 745.505 521.458H537.813C525.07 521.458 514.631 531.896 514.631 544.64V701.629C514.631 714.372 525.07 724.811 537.813 724.811Z" fill="#141414"></path>
<path d="M497.142 767.109H650.878C663.621 767.109 674.06 756.67 674.06 743.927V630.184C674.06 617.44 663.621 607.001 650.878 607.001H497.142C484.399 607.001 473.96 617.44 473.96 630.184V743.927C473.96 756.806 484.263 767.109 497.142 767.109Z" fill="#141414"></path>
<path d="M648.167 781.479H801.902C814.646 781.479 825.084 771.04 825.084 758.296V644.554C825.084 631.811 814.646 621.372 801.902 621.372H648.167C635.423 621.372 624.984 631.811 624.984 644.554V758.296C624.984 771.176 635.287 781.479 648.167 781.479Z" fill="#141414"></path>
<path d="M564.249 480.245H693.718L703.614 490.141V733.759H607.902V694.715H564.249C560.453 690.919 558.284 688.75 554.353 684.819V490.141L564.249 480.245Z" fill="#FCAA73"></path>
<path d="M693.718 480.245L703.614 490.141L704.292 601.715L703.479 602.257L604.784 503.02L554.353 563.755V490.141L564.249 480.245H693.718Z" fill="#141414"></path>
<path d="M715.409 641.166H688.295V598.732H725.034V631.676C725.034 636.963 720.696 641.166 715.409 641.166Z" fill="#FCAA73"></path>
<path d="M681.381 692.953H703.614V641.166H681.381V692.953Z" fill="url(#paint0_linear_6_6064)"></path>
<path d="M641.659 694.579H607.902V708.136H641.659V694.579Z" fill="url(#paint1_linear_6_6064)"></path>
<path fill-rule="evenodd" clip-rule="evenodd" d="M593.156 586.543C594.047 586.933 594.454 587.973 594.064 588.865L573.318 636.285H594.618C595.591 636.285 596.381 637.074 596.381 638.048C596.381 639.021 595.591 639.811 594.618 639.811H570.622C570.027 639.811 569.473 639.511 569.147 639.013C568.821 638.515 568.769 637.886 569.007 637.341L590.834 587.452C591.224 586.56 592.264 586.153 593.156 586.543Z" fill="#F06305"></path>
<path d="M893.276 857.936C886.769 821.197 860.604 791.101 825.221 779.577L703.75 739.584V708.403H608.174V739.584L592.719 744.736L486.704 779.577C451.321 791.236 425.156 821.333 418.649 857.936L378.927 1079.86H608.31H704.022H932.998L893.276 857.936Z" fill="#F06305"></path>
<path d="M789.022 1079.87H932.861L914.831 977.376H771.263L789.022 1079.87Z" fill="#FCAA73"></path>
<path d="M499.176 917.18V1079.46L642.066 1080L499.176 917.18Z" fill="url(#paint2_linear_6_6064)"></path>
<path d="M756.351 897.522L789.972 1079.86H629.322L756.351 897.522Z" fill="url(#paint3_linear_6_6064)"></path>
<path d="M551.64 1048.14H228.578C221.936 1048.14 216.92 1054.24 218.14 1060.75L220.173 1071.19C221.122 1076.21 225.46 1079.73 230.612 1079.73H553.673C560.316 1079.73 565.332 1073.63 564.112 1067.12L562.079 1056.68C561.13 1051.67 556.792 1048.14 551.64 1048.14Z" fill="#072F73"></path>
<path d="M20.6155 842.214H376.62C381.636 842.214 385.975 845.739 387.059 850.755L429.086 1067.12C430.306 1073.63 425.29 1079.73 418.647 1079.73H62.642C57.6259 1079.73 53.2878 1076.21 52.2032 1071.19L10.1768 854.822C8.95665 848.315 13.9726 842.214 20.6155 842.214Z" fill="#0C4EC0"></path>
<path d="M882.564 1079.86L785.632 1013.57L689.378 947.82L621.322 1047.33L668.771 1079.86H882.564Z" fill="#FCAA73"></path>
<path d="M772.756 985.917L776.687 1007.47L882.567 1079.87H932.863L927.034 1046.11L772.756 985.917Z" fill="url(#paint4_linear_6_6064)"></path>
<path d="M689.38 947.823L539.034 931.012L470.436 952.568L429.223 983.206L441.017 994.73L467.182 983.477L438.306 1011.4L453.761 1021.84L518.02 980.901L477.621 1026.86L489.822 1035.81L538.627 1003.68L508.802 1036.48L519.376 1045.16L567.368 1014.12L621.731 1047.33L689.38 947.823Z" fill="#FCAA73"></path>
<path d="M61.2864 519.014H377.298C384.755 519.014 390.855 525.115 390.855 532.571V555.754H414.037C425.154 555.754 430.848 569.31 422.849 577.173L390.855 609.168V729.146C390.855 736.603 384.755 742.703 377.298 742.703H61.2864C53.8301 742.703 47.7295 736.603 47.7295 729.146V532.707C47.7295 525.115 53.8301 519.014 61.2864 519.014Z" fill="url(#paint5_linear_6_6064)"></path>
</g>
<defs>
<linearGradient id="paint0_linear_6_6064" x1="671.673" y1="672.163" x2="731.279" y2="657.611" gradientUnits="userSpaceOnUse">
<stop stop-color="#F8BC9A" stop-opacity="0"></stop>
<stop offset="0.1066" stop-color="#F7B48D" stop-opacity="0.1375"></stop>
<stop offset="0.3031" stop-color="#F6A06C" stop-opacity="0.3906"></stop>
<stop offset="0.5652" stop-color="#F38035" stop-opacity="0.7285"></stop>
<stop offset="0.7758" stop-color="#F06305"></stop>
</linearGradient>
<linearGradient id="paint1_linear_6_6064" x1="639.051" y1="722.216" x2="609.858" y2="679.562" gradientUnits="userSpaceOnUse">
<stop stop-color="#F8BC9A" stop-opacity="0"></stop>
<stop offset="0.1621" stop-color="#F8BA96" stop-opacity="0.1621"></stop>
<stop offset="0.3263" stop-color="#F7B28A" stop-opacity="0.3263"></stop>
<stop offset="0.4917" stop-color="#F6A675" stop-opacity="0.4917"></stop>
<stop offset="0.6578" stop-color="#F59559" stop-opacity="0.6578"></stop>
<stop offset="0.8246" stop-color="#F37F34" stop-opacity="0.8246"></stop>
<stop offset="0.9897" stop-color="#F06508" stop-opacity="0.9897"></stop>
<stop offset="1" stop-color="#F06305"></stop>
</linearGradient>
<linearGradient id="paint2_linear_6_6064" x1="583.882" y1="987.063" x2="476.232" y2="1081" gradientUnits="userSpaceOnUse">
<stop offset="0.1453" stop-color="#F06305"></stop>
<stop offset="0.3114" stop-color="#E15D05"></stop>
<stop offset="0.6314" stop-color="#B94C04"></stop>
<stop offset="0.9417" stop-color="#8C3A03"></stop>
</linearGradient>
<linearGradient id="paint3_linear_6_6064" x1="666.138" y1="965.337" x2="811.823" y2="1092.46" gradientUnits="userSpaceOnUse">
<stop offset="0.1453" stop-color="#F06305"></stop>
<stop offset="0.3114" stop-color="#E15D05"></stop>
<stop offset="0.6314" stop-color="#B94C04"></stop>
<stop offset="0.9417" stop-color="#8C3A03"></stop>
</linearGradient>
<linearGradient id="paint4_linear_6_6064" x1="878.215" y1="975.453" x2="813.427" y2="1121.94" gradientUnits="userSpaceOnUse">
<stop offset="0.2814" stop-color="#F8BC9A" stop-opacity="0"></stop>
<stop offset="0.297" stop-color="#F8B995" stop-opacity="0.030735"></stop>
<stop offset="0.5359" stop-color="#F48B48" stop-opacity="0.4999"></stop>
<stop offset="0.7062" stop-color="#F16E18" stop-opacity="0.8344"></stop>
<stop offset="0.7905" stop-color="#F06305"></stop>
</linearGradient>
<linearGradient id="paint5_linear_6_6064" x1="31.526" y1="511.144" x2="408.592" y2="751.388" gradientUnits="userSpaceOnUse">
<stop stop-color="#C5D9FB"></stop>
<stop offset="0.0703897" stop-color="#CBDDFA"></stop>
<stop offset="0.3904" stop-color="#E2EAF7"></stop>
<stop offset="0.6914" stop-color="#F0F2F6"></stop>
<stop offset="0.9518" stop-color="#F5F5F5"></stop>
</linearGradient>
<clipPath id="clip0_6_6064">
<rect width="1080" height="1080" fill="white"></rect>
</clipPath>
</defs>
</svg>