<svg width="1080" height="1080" viewBox="0 0 1080 1080" fill="none" xmlns="http://www.w3.org/2000/svg">
<path d="M62 569C62 818.632 264.367 1021 514 1021C763.633 1021 966 818.632 966 569C966 319.367 763.633 117 514 117C264.367 117 62.0001 319.367 62 569Z" fill="#C5D9FB"></path>
<path d="M573.68 212.533H549.679C544.879 212.533 541.107 208.767 541.107 203.973V166.481C541.107 161.688 544.879 157.922 549.679 157.922H573.68C578.48 157.922 582.252 161.688 582.252 166.481V203.973C582.252 208.767 578.48 212.533 573.68 212.533Z" fill="#0096FA"></path>
<path d="M573.68 328.946H549.679C544.879 328.946 541.107 325.18 541.107 320.386V243.862C541.107 239.068 544.879 235.302 549.679 235.302H573.68C578.48 235.302 582.252 239.068 582.252 243.862V320.386C582.252 325.18 578.48 328.946 573.68 328.946Z" fill="#0096FA"></path>
<path d="M996.097 380.134H972.096C967.296 380.134 963.524 376.368 963.524 371.575V295.05C963.524 290.257 967.296 286.49 972.096 286.49H996.097C1000.9 286.49 1004.67 290.257 1004.67 295.05V371.575C1004.67 376.368 1000.73 380.134 996.097 380.134Z" fill="#0096FA"></path>
<path d="M920.152 945.687H625.284C593.569 945.687 567.854 920.008 567.854 888.336V120.351C567.854 88.6792 593.569 62.9998 625.284 62.9998H920.152C951.868 62.9998 977.583 88.6792 977.583 120.351V888.336C977.412 920.008 951.868 945.687 920.152 945.687Z" fill="url(#paint0_linear_6_4682)"></path>
<path d="M777.741 250.781C777.741 241.987 770.602 234.858 761.796 234.858H615.897C607.091 234.858 599.952 241.987 599.952 250.781V272.267C599.952 275.198 602.332 277.574 605.267 277.574H761.796C770.602 277.574 777.741 270.445 777.741 261.651V250.781Z" fill="white"></path>
<path d="M749.587 309.42C749.587 300.626 756.726 293.497 765.532 293.497H927.472C936.278 293.497 943.417 300.626 943.417 309.42V330.906C943.417 333.837 941.038 336.214 938.102 336.214H765.532C756.726 336.214 749.587 329.085 749.587 320.291V309.42Z" fill="#B2DFFD"></path>
<path d="M749.587 452.064C749.587 443.27 756.726 436.141 765.532 436.141H927.472C936.278 436.141 943.417 443.27 943.417 452.064V473.55C943.417 476.481 941.038 478.857 938.102 478.857H765.532C756.726 478.857 749.587 471.728 749.587 462.934V452.064Z" fill="#B2DFFD"></path>
<path d="M841.903 368.06C841.903 359.266 834.764 352.137 825.958 352.137H615.895C607.089 352.137 599.95 359.266 599.95 368.06V414.909C599.95 417.84 602.329 420.216 605.265 420.216H825.958C834.764 420.216 841.903 413.087 841.903 404.293V368.06Z" fill="white"></path>
<path d="M567.332 86.2269C567.332 63.9711 584.246 45.9293 605.11 45.9293H943.529C964.393 45.9293 981.307 63.9711 981.307 86.2269V100.176H567.332V86.2269Z" fill="url(#paint1_linear_6_4682)"></path>
<path d="M977.561 100.401H567.332V157.896H977.561V100.401Z" fill="#0096FA"></path>
<path d="M953.066 127.184L959.299 120.943C959.453 120.751 959.53 120.508 959.516 120.263C959.501 120.017 959.396 119.785 959.221 119.612C959.046 119.438 958.813 119.336 958.567 119.324C958.321 119.311 958.079 119.391 957.888 119.546L951.65 125.77L945.413 119.546C945.325 119.436 945.216 119.346 945.091 119.282C944.966 119.217 944.83 119.18 944.69 119.172C944.549 119.164 944.409 119.185 944.278 119.234C944.147 119.284 944.027 119.361 943.928 119.459C943.828 119.558 943.75 119.677 943.699 119.807C943.649 119.938 943.626 120.078 943.633 120.218C943.64 120.358 943.676 120.495 943.74 120.62C943.803 120.745 943.892 120.855 944.001 120.943L950.235 127.172L944.001 133.413C943.863 133.552 943.768 133.73 943.73 133.923C943.692 134.116 943.713 134.316 943.788 134.498C943.864 134.68 943.992 134.835 944.155 134.945C944.319 135.054 944.512 135.113 944.709 135.113C944.84 135.114 944.97 135.089 945.09 135.039C945.211 134.989 945.321 134.915 945.413 134.822L951.65 128.593L957.888 134.822C957.979 134.915 958.089 134.989 958.21 135.039C958.331 135.089 958.46 135.114 958.591 135.113C958.788 135.113 958.981 135.054 959.145 134.945C959.309 134.835 959.437 134.68 959.512 134.498C959.588 134.316 959.608 134.116 959.57 133.923C959.532 133.73 959.438 133.552 959.299 133.413L953.066 127.184Z" fill="white"></path>
<path d="M591.131 133.444C591.03 133.444 590.931 133.421 590.84 133.378C590.749 133.335 590.669 133.273 590.605 133.196L585.788 127.466C585.575 127.214 585.459 126.895 585.459 126.566C585.459 126.237 585.575 125.918 585.788 125.666L590.605 119.937C590.726 119.801 590.895 119.719 591.076 119.706C591.257 119.693 591.436 119.751 591.575 119.867C591.714 119.984 591.803 120.15 591.822 120.33C591.841 120.51 591.789 120.691 591.677 120.834L586.86 126.566L591.668 132.299C591.754 132.4 591.81 132.524 591.827 132.657C591.845 132.789 591.824 132.923 591.768 133.044C591.711 133.164 591.621 133.266 591.508 133.337C591.395 133.408 591.264 133.446 591.131 133.444V133.444Z" fill="white"></path>
<path fill-rule="evenodd" clip-rule="evenodd" d="M622.769 146.408C626.327 146.406 629.805 145.35 632.762 143.375C635.72 141.399 638.024 138.592 639.385 135.309C640.745 132.026 641.1 128.414 640.406 124.929C639.711 121.444 637.997 118.243 635.481 115.731C632.965 113.218 629.76 111.507 626.27 110.813C622.781 110.119 619.163 110.474 615.876 111.833C612.588 113.191 609.777 115.493 607.799 118.446C605.82 121.4 604.763 124.872 604.761 128.425C604.771 133.192 606.671 137.76 610.046 141.13C613.421 144.501 617.996 146.399 622.769 146.408V146.408Z" fill="#2C2A46"></path>
<g clip-path="url(#clip0_6_4682)">
<path fill-rule="evenodd" clip-rule="evenodd" d="M627.774 136.928C626.365 137.096 624.771 137.151 622.991 137.151C621.211 137.151 619.617 137.096 618.208 136.928L618.207 136.93L615.785 140.405C615.645 140.597 615.435 140.696 615.225 140.696C615.015 140.696 614.805 140.603 614.671 140.417C613.375 138.639 612.063 136.337 611.205 133.559C610.88 132.508 610.621 131.39 610.452 130.209C610.305 129.304 610.231 128.285 610.23 127.137C610.23 118.105 615.423 115.211 622.991 115.211C630.548 115.211 635.738 118.098 635.751 127.101C635.751 127.113 635.751 127.125 635.751 127.137C635.751 127.168 635.751 127.199 635.751 127.23C635.748 128.276 635.682 129.215 635.555 130.056C634.963 134.429 633.119 137.936 631.311 140.417C631.037 140.795 630.465 140.789 630.197 140.405L627.775 136.93C627.775 136.929 627.775 136.929 627.774 136.928Z" fill="#0096FA"></path>
<path d="M611.392 134.14C612.29 136.819 613.626 138.981 614.671 140.417C614.945 140.795 615.517 140.789 615.785 140.405L618.207 136.93C614.887 136.639 612.407 135.68 611.392 134.14Z" fill="url(#paint2_linear_6_4682)"></path>
<path d="M634.571 134.14C633.673 136.819 632.337 138.981 631.292 140.417C631.018 140.795 630.446 140.789 630.178 140.405L627.756 136.93C631.076 136.639 633.556 135.68 634.571 134.14Z" fill="url(#paint3_linear_6_4682)"></path>
<path d="M626.727 132.358C627.082 132.358 627.369 132.026 627.375 131.614H626.078C626.084 132.026 626.372 132.358 626.727 132.358Z" fill="black"></path>
<path d="M619.354 132.358C618.999 132.358 618.711 132.026 618.705 131.614H620.002C619.996 132.026 619.709 132.358 619.354 132.358Z" fill="black"></path>
<path d="M630.659 129.545C630.891 129.545 631.079 129.733 631.079 129.964C631.079 130.196 630.891 130.383 630.659 130.383H615.149C614.917 130.383 614.729 130.196 614.729 129.964C614.729 129.733 614.917 129.545 615.149 129.545H630.659ZM616.426 124.668C616.262 125.142 615.807 125.454 615.306 125.435L614.355 125.4C613.848 125.381 613.428 124.998 613.362 124.494L613.203 123.262L616.943 123.163L616.426 124.668ZM620.758 123.262L620.599 124.494C620.533 124.998 620.113 125.381 619.605 125.4L618.655 125.435C618.154 125.454 617.699 125.142 617.535 124.668L617.018 123.163L620.758 123.262Z" fill="#0035B5"></path>
<path fill-rule="evenodd" clip-rule="evenodd" d="M627.984 132.165L628.108 130.352L629.121 130.421L628.998 132.234L627.984 132.165Z" fill="#0065FF"></path>
</g>
<path d="M639.857 122.072C642.64 122.072 644.895 119.82 644.895 117.042C644.895 114.263 642.64 112.011 639.857 112.011C637.075 112.011 634.819 114.263 634.819 117.042C634.819 119.82 637.075 122.072 639.857 122.072Z" fill="#90E6BC"></path>
<path fill-rule="evenodd" clip-rule="evenodd" d="M639.855 112.659C637.431 112.659 635.466 114.621 635.466 117.042C635.466 119.462 637.431 121.424 639.855 121.424C642.279 121.424 644.244 119.462 644.244 117.042C644.244 114.621 642.279 112.659 639.855 112.659ZM634.168 117.042C634.168 113.905 636.714 111.362 639.855 111.362C642.996 111.362 645.542 113.905 645.542 117.042C645.542 120.178 642.996 122.721 639.855 122.721C636.714 122.721 634.168 120.178 634.168 117.042Z" fill="#2CC3D5"></path>
<rect x="647.571" y="125.275" width="95.3647" height="6.96818" rx="3.48409" fill="white"></rect>
<path d="M778.811 81.4703H730.491C724.152 81.4703 719.061 77.304 719.061 72.1174C719.061 66.9308 724.152 62.7645 730.491 62.7645H778.811C785.15 62.7645 790.242 66.9308 790.242 72.1174C790.242 77.304 785.15 81.4703 778.811 81.4703Z" fill="#0096FA"></path>
<path d="M812.488 78.2356C815.801 78.2356 818.488 75.5529 818.488 72.2437C818.488 68.9345 815.801 66.2518 812.488 66.2518C809.174 66.2518 806.487 68.9345 806.487 72.2437C806.487 75.5529 809.174 78.2356 812.488 78.2356Z" fill="#F5F5F5"></path>
<path d="M922.549 29.0941C960.436 29.0941 991.123 59.7382 991.123 97.5726V878.398C991.294 916.232 960.607 946.876 922.549 946.876H622.538C584.651 946.876 553.964 916.232 553.964 878.398V97.5726C553.964 59.7382 584.651 29.0941 622.538 29.0941H922.549ZM625.284 46.556C593.569 46.5561 567.854 72.2363 567.854 103.908V871.893C567.854 903.564 593.569 929.243 625.284 929.243H920.152C951.868 929.243 977.412 903.564 977.583 871.893V103.908C977.583 72.2363 951.868 46.556 920.152 46.556H625.284Z" fill="url(#paint4_linear_6_4682)"></path>
<path d="M416.919 34H66.0807C56.6863 34 49 39.4941 49 46.209V257.791C49 264.506 56.6863 270 66.0807 270H416.919C426.314 270 434 264.506 434 257.791V46.209C434 39.372 426.314 34 416.919 34Z" fill="url(#paint5_linear_6_4682)"></path>
<path d="M417.04 290H66.0863C56.6889 290 49 297.689 49 307.086V340.747C49 350.144 56.6889 357.833 66.0863 357.833H417.04C426.437 357.833 434.126 350.144 434.126 340.747V307.086C434.126 297.689 426.437 290 417.04 290Z" fill="url(#paint6_linear_6_4682)"></path>
<path d="M401.833 65.9501H81.4639V223.658H401.833V65.9501Z" fill="#0096FA"></path>
<path d="M281.886 114.476C297.55 114.476 310.249 101.778 310.249 86.1134C310.249 70.4487 297.55 57.749 281.886 57.749C266.221 57.749 253.522 70.4487 253.522 86.1134C253.522 101.778 266.221 114.476 281.886 114.476Z" fill="#FCE173"></path>
<path d="M67.7939 113.279C72.0655 102.685 81.9757 94.4839 94.107 92.7753C106.409 91.0666 118.028 96.1922 125.204 105.248L67.7939 113.279Z" fill="#35DE90"></path>
<path d="M71.7256 66.2915C83.686 60.9947 98.2095 62.0205 109.486 70.3928C120.763 78.7652 126.402 92.0922 125.035 105.078L71.7256 66.2915Z" fill="#35DE90"></path>
<path d="M125.033 105.249C120.42 94.6551 121.274 82.0112 128.621 71.9302C135.968 61.8493 147.587 57.0651 159.035 58.2612L125.033 105.249Z" fill="#35DE90"></path>
<path d="M124.863 105.079C128.451 96.0235 136.653 88.8465 146.905 87.3087C157.327 85.6001 167.237 89.8724 173.388 97.3904L124.863 105.079Z" fill="#35DE90"></path>
<path d="M95.9873 144.718C92.0574 135.663 92.9117 124.898 99.0628 116.526C105.214 107.983 115.295 104.053 125.034 105.078L95.9873 144.718Z" fill="#35DE90"></path>
<path d="M119.907 98.7562L128.109 97.3896L163.307 202.641L149.296 204.863L119.907 98.7562Z" fill="#35DE90"></path>
<path d="M213.883 135.664L190.646 97.5598L167.238 59.4576L144 97.5598L120.592 135.664V223.829H213.883V135.664Z" fill="#072F73"></path>
<path d="M217.644 59.4576H167.239V223.829H217.644V59.4576Z" fill="#072F73"></path>
<path d="M264.459 135.664L241.05 97.5598L217.813 59.4576L194.404 97.5598L171.167 135.664V223.829H264.459V135.664Z" fill="white"></path>
<path d="M230.286 152.92H205.34V203.837H230.286V152.92Z" fill="#072F73"></path>
<path d="M346.129 150.699L330.752 128.657H281.885V223.999H284.448H315.203H361.678V172.912L346.129 150.699Z" fill="#072F73"></path>
<path d="M250.958 172.912L266.336 150.699L281.884 128.657L297.262 150.699L312.64 172.912V223.999H250.958V172.912Z" fill="#35DE90"></path>
<path d="M273.534 212.325L290.107 212.325L290.107 182.766L273.534 182.766L273.534 212.325Z" fill="#072F73"></path>
<path d="M419.09 108.326C413.281 98.7574 402.858 92.6053 390.898 92.7762C378.937 92.947 368.685 99.6117 363.218 109.18L419.09 108.326Z" fill="#35DE90"></path>
<path d="M408.157 64.2417C395.855 60.9953 382.357 64.2427 372.789 73.8111C363.22 83.3794 359.974 96.878 363.22 109.18L408.157 64.2417Z" fill="#35DE90"></path>
<path d="M363.39 109.35C366.294 98.5859 363.39 86.6252 355.017 78.2529C346.645 69.8806 334.684 66.9769 323.92 69.8816L363.39 109.35Z" fill="#35DE90"></path>
<path d="M363.561 109.18C358.776 100.978 349.892 95.5109 339.811 95.5109C329.73 95.5109 320.845 100.978 316.061 109.18H363.561Z" fill="#35DE90"></path>
<path d="M396.878 142.498C399.27 133.443 396.878 123.19 389.702 116.185C382.525 109.009 372.444 106.788 363.218 109.18L396.878 142.498Z" fill="#35DE90"></path>
<path d="M367.32 102.345H359.29L339.812 223.829H353.481L367.32 102.345Z" fill="#35DE90"></path>
<path d="M89.8369 178.038C93.7668 171.545 100.943 167.102 109.144 167.102C117.346 167.102 124.522 171.544 128.281 178.208L89.8369 178.038Z" fill="#35DE90"></path>
<path d="M97.0117 147.623C105.384 145.402 114.781 147.451 121.445 153.944C128.109 160.437 130.33 169.835 128.28 178.207L97.0117 147.623Z" fill="#35DE90"></path>
<path d="M128.109 178.38C126.059 171.033 127.938 162.832 133.577 157.022C139.215 151.213 147.417 149.163 154.935 151.042L128.109 178.38Z" fill="#35DE90"></path>
<path d="M128.111 178.208C131.358 172.569 137.338 168.811 144.343 168.64C151.349 168.64 157.329 172.227 160.746 177.866L128.111 178.208Z" fill="#35DE90"></path>
<path d="M105.385 201.446C103.677 195.124 105.214 188.288 110.169 183.333C115.124 178.378 121.959 176.671 128.281 178.379L105.385 201.446Z" fill="#35DE90"></path>
<path d="M139.901 223.999L131.016 173.424L125.378 173.594L131.7 223.999H139.901Z" fill="#35DE90"></path>
<path d="M1045.4 742.898V621.421C1045.4 610.733 1036.67 602 1025.98 602H896.944C886.256 602 877.524 610.733 877.524 621.421V642.927H850.674C846.503 642.927 844.417 648.01 847.415 650.878L877.524 680.986V742.768C877.524 753.455 886.256 762.188 896.944 762.188H1025.98C1036.67 762.318 1045.4 753.586 1045.4 742.898Z" fill="#35DE90"></path>
<path d="M957.837 713.495C951.528 712.699 946.75 710.617 943.504 707.248C940.319 703.818 938.727 699.285 938.727 693.65H951.038C951.038 697.203 952.171 699.837 954.437 701.552C956.765 703.267 959.858 704.124 963.717 704.124C971.373 704.124 975.201 701.705 975.201 696.866C975.201 695.212 974.711 693.895 973.731 692.915C972.751 691.874 971.342 691.017 969.505 690.343C967.667 689.669 964.972 688.903 961.42 688.046C956.459 686.943 952.539 685.78 949.66 684.555C946.842 683.268 944.668 681.523 943.137 679.318C941.605 677.051 940.84 674.081 940.84 670.406C940.84 665.934 942.34 662.382 945.342 659.748C948.404 657.114 952.569 655.491 957.837 654.879L957.377 644.864H968.494L967.943 654.879C973.762 655.614 978.111 657.574 980.989 660.759C983.929 663.883 985.43 667.925 985.491 672.886H973.364C973.302 670.069 972.353 667.895 970.515 666.363C968.739 664.832 966.136 664.066 962.706 664.066C959.827 664.066 957.53 664.556 955.815 665.536C954.1 666.516 953.243 668.078 953.243 670.222C953.243 671.753 953.641 672.978 954.437 673.897C955.234 674.816 956.428 675.581 958.02 676.194C959.674 676.745 962.124 677.45 965.37 678.307C970.577 679.532 974.681 680.726 977.682 681.89C980.683 683.054 983.072 684.738 984.848 686.943C986.624 689.087 987.512 691.997 987.512 695.672C987.512 700.755 985.828 704.859 982.459 707.983C979.091 711.107 974.252 712.975 967.943 713.587L968.494 723.51H957.377L957.837 713.495Z" fill="#1968F0"></path>
<path d="M34.0002 832.898V711.421C34.0002 700.733 42.7332 692 53.4211 692H182.458C193.146 692 201.879 700.733 201.879 711.421V732.927H228.729C232.9 732.927 234.985 738.01 231.987 740.878L201.879 770.986V832.768C201.879 843.455 193.146 852.188 182.458 852.188H53.4211C42.7332 852.318 34.0002 843.586 34.0002 832.898Z" fill="#F5F5F5"></path>
<path fill-rule="evenodd" clip-rule="evenodd" d="M147.656 766.424C147.656 747.128 132.022 731.493 112.725 731.493C93.429 731.493 77.794 747.128 77.794 766.424H83.0076C83.0076 750.007 96.3083 736.707 112.725 736.707C129.142 736.707 142.443 750.007 142.443 766.424H147.656Z" fill="#072F73"></path>
<path fill-rule="evenodd" clip-rule="evenodd" d="M88.573 811.231C94.8566 814.364 103.353 816.214 112.595 816.214V811C103.979 811 96.314 809.265 90.8995 806.565C85.3351 803.791 82.8771 800.425 82.8771 797.445H77.6635C77.6635 803.457 82.4394 808.173 88.573 811.231Z" fill="#072F73"></path>
<path d="M155.998 799.008H142.182V765.25H155.998C161.994 765.25 166.816 770.073 166.816 776.069V788.321C166.816 794.186 161.994 799.008 155.998 799.008Z" fill="#1968F0"></path>
<path d="M69.1916 799.008H83.0078V765.25H69.1916C63.196 765.25 58.3733 770.073 58.3733 776.068V788.32C58.3733 794.186 63.196 799.008 69.1916 799.008Z" fill="#1968F0"></path>
<path d="M108.945 819.602C105.633 819.602 102.949 816.918 102.949 813.607C102.949 810.296 105.633 807.611 108.945 807.611C112.256 807.611 114.94 810.296 114.94 813.607C114.94 816.918 112.256 819.602 108.945 819.602Z" fill="#072F73"></path>
<g clip-path="url(#clip1_6_4682)">
<path d="M760.557 719.345C755.146 686.228 733.391 659.099 703.97 648.712L602.97 612.663V584.557H523.501V612.663L510.651 617.307L422.501 648.712C393.081 659.222 371.325 686.35 365.915 719.345L332.887 919.388H523.614H603.196H793.585L760.557 719.345Z" fill="#FBCF23"></path>
<path d="M432.871 772.747V919.022L551.681 919.511L432.871 772.747Z" fill="url(#paint7_linear_6_4682)"></path>
<path d="M553.335 543.865H656.231C662.545 543.865 667.717 537.278 667.717 529.237V430.181C667.717 422.14 662.545 415.554 656.231 415.554H553.335C547.021 415.554 541.85 422.14 541.85 430.181V529.237C541.85 537.278 547.021 543.865 553.335 543.865Z" fill="#141414"></path>
<path d="M458.017 543.865H560.914C567.228 543.865 572.399 537.278 572.399 529.237V430.181C572.399 422.14 567.228 415.554 560.914 415.554H458.017C451.704 415.554 446.532 422.14 446.532 430.181V529.237C446.532 537.278 451.704 543.865 458.017 543.865Z" fill="#141414"></path>
<path fill-rule="evenodd" clip-rule="evenodd" d="M530.291 378.893H507.154L500.267 387.814V563.295L507.154 572.216H523.485V607.41H537.532H589.307H604.138V572.216H619.328L626.134 563.295V387.814L619.328 378.893H597.251H530.291Z" fill="#FCAA73"></path>
<path d="M479.085 527.979H508.856V481.542H468.529V517.449C468.529 523.254 473.266 527.979 479.085 527.979Z" fill="#FCAA73"></path>
<path d="M641.274 527.979H611.503V481.542H651.829V517.449C651.829 523.254 647.093 527.979 641.274 527.979Z" fill="#FCAA73"></path>
<path d="M621.847 378.893L631.607 387.814L632.275 488.386L631.473 488.874L534.145 399.423L484.412 454.169V387.814L494.172 378.893H621.847Z" fill="#141414"></path>
<path d="M619.082 523.944H594.642V485.695H627.758V515.39C627.758 520.156 623.848 523.944 619.082 523.944Z" fill="#FCAA73"></path>
<path d="M552.604 572.096H522.176V584.316H552.604V572.096Z" fill="url(#paint8_linear_6_4682)"></path>
<path d="M509.91 596.075H613.781V636.401H509.91V596.075Z" fill="#FACF23"></path>
<path d="M665.207 811.064L648.176 707.74L766.828 700.927L793.511 811.064H665.207Z" fill="#FBCF23"></path>
<path d="M769.099 717.393C769.099 757.212 736.819 789.493 696.999 789.493C657.18 789.493 624.899 757.212 624.899 717.393C624.899 677.573 657.18 645.293 696.999 645.293C736.819 645.293 769.099 677.573 769.099 717.393Z" fill="#FACF23"></path>
<path fill-rule="evenodd" clip-rule="evenodd" d="M786.623 809.134L801.684 894.743C802.946 900.027 803.614 905.541 803.614 911.211C803.614 950.215 771.994 981.834 732.99 981.834C730.267 981.834 727.58 981.68 724.937 981.38H493.454V865.566H676.159L666.381 809.134H786.623Z" fill="#FCAA73"></path>
<path d="M664.375 727.352L596.882 730.116C592.659 730.27 589.357 733.879 589.511 738.102L590.97 773.806C591.123 778.029 594.732 781.331 598.955 781.177L666.448 778.413C670.671 778.26 673.973 774.651 673.819 770.428L672.361 734.723C672.207 730.423 668.598 727.122 664.375 727.352Z" fill="url(#paint9_linear_6_4682)"></path>
<path d="M615.157 772.268C624.316 772.268 631.742 764.843 631.742 755.683C631.742 746.523 624.316 739.098 615.157 739.098C605.997 739.098 598.571 746.523 598.571 755.683C598.571 764.843 605.997 772.268 615.157 772.268Z" fill="#C5D9FB"></path>
<path d="M615.168 756.587C618.431 756.454 620.978 753.941 620.857 750.975C620.735 748.009 617.992 745.712 614.729 745.846C611.466 745.979 608.92 748.492 609.041 751.458C609.162 754.424 611.905 756.72 615.168 756.587Z" fill="#1968F0"></path>
<path d="M615.849 772.27C620.456 772.116 624.603 769.966 627.367 766.741C625.447 761.981 620.687 758.679 615.312 758.909C609.86 759.14 605.407 762.825 603.871 767.739C606.942 770.657 611.166 772.423 615.849 772.27Z" fill="#1968F0"></path>
<path d="M664.532 762.826L640.575 763.824C639.193 763.901 637.965 762.826 637.965 761.367L637.734 754.994C637.658 753.612 638.733 752.383 640.191 752.383L664.148 751.385C665.53 751.308 666.759 752.383 666.759 753.842L666.989 760.215C667.066 761.597 665.914 762.749 664.532 762.826Z" fill="#1968F0"></path>
<path d="M653.321 749.006L638.808 749.62C638.041 749.62 637.426 749.083 637.426 748.315L637.35 746.933C637.35 746.165 637.887 745.55 638.655 745.55L653.167 744.936C653.935 744.936 654.549 745.474 654.549 746.242L654.626 747.624C654.626 748.392 654.088 749.006 653.321 749.006Z" fill="#C5D9FB"></path>
<path d="M645.555 722.284L614.949 723.537C613.645 723.615 612.725 724.711 612.725 725.964L612.955 732.229C613.031 733.56 614.105 734.5 615.333 734.5L645.938 733.247C647.242 733.168 648.163 732.072 648.163 730.819L647.933 724.555C647.933 723.223 646.859 722.205 645.555 722.284Z" fill="#A3A3A3"></path>
<path d="M462.685 811.064L479.717 707.74L361.064 700.927L334.382 811.064H462.685Z" fill="#FACF23"></path>
<path d="M358.793 717.393C358.793 757.212 391.074 789.493 430.893 789.493C470.713 789.493 502.993 757.212 502.993 717.393C502.993 677.573 470.713 645.293 430.893 645.293C391.074 645.293 358.793 677.573 358.793 717.393Z" fill="#FACF23"></path>
<path fill-rule="evenodd" clip-rule="evenodd" d="M341.266 809.134L326.206 894.743C324.944 900.027 324.276 905.541 324.276 911.211C324.276 942.607 344.763 969.219 373.099 978.406V981.38H386.847C389.489 981.68 392.176 981.834 394.899 981.834C397.622 981.834 400.309 981.68 402.952 981.38H613.811V865.566H451.73L461.509 809.134H341.266Z" fill="#FCAA73"></path>
<path d="M808.248 571.971L739.396 1026.56H388.112L320.665 571.971H808.248Z" fill="url(#paint10_linear_6_4682)"></path>
<path fill-rule="evenodd" clip-rule="evenodd" d="M465.781 837.147H357.804C352.13 837.147 347.845 842.357 348.887 847.914L384.787 1032.71C385.713 1036.99 389.419 1040 393.704 1040H429.881H697.809H733.986C738.271 1040 741.977 1036.99 742.903 1032.71L778.803 847.914C779.845 842.357 775.56 837.147 769.886 837.147H661.909H465.781Z" fill="#0C4EC0"></path>
<path d="M569.514 905.879C546.768 905.879 534.568 914.46 534.568 936.792C534.568 956.746 544.907 972.151 569.514 972.151C570.134 972.151 571.375 972.151 571.375 972.151C571.375 975.046 571.375 978.768 571.375 981.973C571.375 982.8 571.995 983.524 572.926 983.524C573.649 983.524 573.856 983.214 574.476 982.697C578.819 978.975 591.639 967.292 591.639 967.292C598.049 961.192 604.459 953.955 604.459 936.792C604.459 914.46 592.259 905.879 569.514 905.879Z" fill="#0096FA"></path>
<g opacity="0.2" filter="url(#filter0_f_6_4682)">
<path d="M401.997 1042.33C401.997 1048.04 360.061 1052.67 308.331 1052.67C256.6 1052.67 214.664 1048.04 214.664 1042.33C214.664 1036.63 256.6 1032 308.331 1032C360.061 1032 401.997 1036.63 401.997 1042.33Z" fill="#0A0F1A"></path>
</g>
<path d="M364.97 966.063H236.718V931.15H364.97C369.198 931.15 373.253 932.83 376.242 935.82C379.232 938.809 380.912 942.864 380.912 947.092V950.174C380.898 954.393 379.212 958.434 376.224 961.413C373.235 964.391 369.189 966.063 364.97 966.063Z" fill="#F5F8F9"></path>
<path fill-rule="evenodd" clip-rule="evenodd" d="M372.482 936.876H231.645V928.666H376.808C385.912 928.666 385.018 935.351 385.018 944.435V951.822C385.018 960.997 385.925 967.591 376.808 967.591H231.645V959.381H372.482C378.085 959.381 376.808 955.506 376.808 951.822V944.435C376.808 940.819 378.045 936.876 372.482 936.876Z" fill="#1968F0"></path>
<path d="M364.97 1043.24H236.718V1008.33H364.97C369.198 1008.33 373.253 1010.01 376.242 1013C379.232 1015.99 380.912 1020.04 380.912 1024.27V1027.35C380.898 1031.57 379.212 1035.61 376.224 1038.59C373.235 1041.57 369.189 1043.24 364.97 1043.24Z" fill="#F5F8F9"></path>
<path fill-rule="evenodd" clip-rule="evenodd" d="M372.482 1014.06H231.645V1005.85H376.808C385.912 1005.85 385.018 1012.53 385.018 1021.61V1029C385.018 1038.18 385.925 1044.77 376.808 1044.77H231.645V1036.56H372.482C378.085 1036.56 376.808 1032.68 376.808 1029V1021.61C376.808 1018 378.045 1014.06 372.482 1014.06Z" fill="#282828"></path>
<path d="M347.895 1004.28H219.643V969.363H347.895C352.123 969.363 356.177 971.043 359.167 974.032C362.157 977.022 363.836 981.077 363.836 985.305V988.387C363.822 992.606 362.137 996.647 359.148 999.625C356.16 1002.6 352.113 1004.28 347.895 1004.28Z" fill="#F5F8F9"></path>
<path fill-rule="evenodd" clip-rule="evenodd" d="M355.406 975.089H214.569V966.879H359.733C368.837 966.879 367.943 973.564 367.943 982.648V990.034C367.943 999.21 368.85 1005.8 359.733 1005.8H214.569V997.593H355.406C361.009 997.593 359.733 993.718 359.733 990.034V982.648C359.733 979.031 360.969 975.089 355.406 975.089Z" fill="#0096FA"></path>
<g opacity="0.2" filter="url(#filter1_f_6_4682)">
<path d="M831.863 1032.71C831.863 1036.88 813.985 1040.26 791.931 1040.26C769.878 1040.26 752 1036.88 752 1032.71C752 1028.55 769.878 1025.17 791.931 1025.17C813.985 1025.17 831.863 1028.55 831.863 1032.71Z" fill="#0A0F1A"></path>
</g>
<path opacity="0.08" d="M794.257 934.383C794.257 934.383 787.681 927.018 786.473 926.022C783.42 923.764 780.517 921.312 777.782 918.68C777.259 918.114 776.799 917.493 776.411 916.827C776.035 916.22 775.79 915.542 775.69 914.836C775.584 914.098 775.681 913.346 775.969 912.658C776.287 911.911 776.772 911.245 777.387 910.713C779.174 909.252 781.225 908.143 783.428 907.447C787.098 906.176 790.857 905.177 794.675 904.46C796.421 904.112 798.138 903.632 799.811 903.024C800.704 902.712 801.537 902.25 802.274 901.657C802.415 901.54 802.533 901.399 802.622 901.24C802.633 901.194 802.633 901.147 802.622 901.101C802.622 901.101 802.622 901.101 802.622 900.962C802.554 900.821 802.468 900.689 802.367 900.569C801.263 899.541 799.958 898.752 798.533 898.253C796.681 897.511 794.746 896.998 792.77 896.724C789.779 896.357 786.83 895.705 783.963 894.778C782.01 894.164 780.217 893.128 778.711 891.744C778.113 891.152 777.632 890.453 777.294 889.683C776.97 888.955 776.811 888.164 776.829 887.367C776.907 885.85 777.469 884.398 778.432 883.221C780.494 880.79 783.164 878.945 786.17 877.871C787.373 877.393 788.618 877.029 789.888 876.783L790.818 876.667C792.468 876.667 795.465 876.667 794.722 878.983C794.164 880.743 793.072 880.72 791.352 880.998L790.678 881.114C789.682 881.294 788.703 881.558 787.751 881.901C785.483 882.681 783.441 884.001 781.802 885.746C781.393 886.23 781.12 886.813 781.012 887.437C781.003 887.644 781.043 887.85 781.128 888.039C781.247 888.343 781.429 888.62 781.662 888.849C782.72 889.812 783.972 890.538 785.334 890.98C790.26 892.833 795.001 892.787 799.95 894.894C801.932 895.665 803.7 896.896 805.109 898.484C805.42 898.873 805.664 899.312 805.829 899.781C806.032 900.28 806.112 900.82 806.062 901.356C806.028 901.912 805.861 902.453 805.574 902.931C805.281 903.412 804.912 903.842 804.481 904.205C803.42 905.026 802.225 905.661 800.949 906.081C799.092 906.693 797.188 907.158 795.256 907.47C791.56 908.09 787.905 908.933 784.311 909.995C782.41 910.53 780.617 911.392 779.013 912.543C778.645 912.836 778.337 913.198 778.107 913.608C777.973 913.914 777.917 914.248 777.944 914.581C777.994 915.012 778.128 915.429 778.339 915.808C778.626 916.352 778.968 916.864 779.362 917.337C781.903 920.027 784.604 922.564 787.448 924.934C788.634 926.045 794.977 932.461 794.257 934.383Z" fill="black"></path>
<path opacity="0.08" d="M803.261 934.14C803.261 934.14 803.261 933.767 803.378 933.721C803.488 932.752 803.335 931.771 802.935 930.881C802.518 930.054 801.94 929.319 801.235 928.717C799.449 927.35 797.521 926.18 795.484 925.226C793.337 924.25 791.332 922.99 789.522 921.479C788.702 920.757 788.057 919.858 787.636 918.85C787.216 917.751 787.127 916.554 787.38 915.405C787.503 914.763 787.802 914.167 788.242 913.683C788.692 913.185 789.219 912.761 789.802 912.426C791.189 911.684 792.669 911.129 794.203 910.774C797.742 909.913 801.189 909.424 804.891 908.703C806.337 908.436 807.755 908.038 809.129 907.516C809.59 907.335 810.027 907.1 810.433 906.818C810.687 906.655 810.895 906.431 811.039 906.166C811.145 905.983 811.186 905.77 811.155 905.561C811.079 905.16 810.921 904.78 810.689 904.444C810.177 903.691 809.584 902.996 808.92 902.373C808.198 901.674 806.754 900.511 807.592 899.487C808.431 898.463 810.154 899.882 810.876 900.557C811.71 901.344 812.438 902.236 813.041 903.21C813.45 903.849 813.705 904.574 813.786 905.328C813.856 906.023 813.709 906.721 813.367 907.33C813.019 907.904 812.55 908.396 811.993 908.773C811.399 909.155 810.767 909.475 810.107 909.727C808.594 910.268 807.035 910.673 805.45 910.937C801.887 911.565 798.324 911.961 794.785 912.729C793.435 912.983 792.127 913.422 790.896 914.032C790.479 914.236 790.1 914.512 789.778 914.847C789.539 915.096 789.363 915.399 789.266 915.731C789.033 916.568 789.033 917.454 789.266 918.291C789.569 919.098 790.046 919.829 790.663 920.432C792.314 921.9 794.145 923.151 796.112 924.156C798.19 925.224 800.123 926.554 801.864 928.112C802.6 928.835 803.172 929.708 803.541 930.672C803.866 931.678 803.866 932.761 803.541 933.767C803.541 933.767 803.261 934.186 803.261 934.14Z" fill="black"></path>
<rect x="769.37" y="938.971" width="51.679" height="9.41814" rx="4.70907" fill="#141414"></rect>
<rect x="765.745" y="945.249" width="58.6822" height="9.41814" rx="2.66667" fill="#141414"></rect>
<path d="M825.518 953.098L817.607 1025.91C817.093 1030.65 813.093 1034.24 808.328 1034.24H781.367C776.603 1034.24 772.603 1030.65 772.089 1025.91L764.179 953.098H825.518Z" fill="#EDEDED"></path>
<path d="M823.466 969.883L818.757 1016.73H771.062L765.75 969.883H823.466Z" fill="#072F73"></path>
<rect x="762.606" y="949.354" width="65.2025" height="5.3128" rx="2.6564" fill="#141414"></rect>
<path d="M374.958 757.125C376.371 755.624 377.466 753.849 378.176 751.91C378.886 749.97 379.196 747.906 379.088 745.842C378.981 743.779 378.457 741.758 377.548 739.904C376.64 738.05 375.367 736.401 373.805 735.057L373.05 734.395C369.827 731.612 365.664 730.179 361.42 730.389C357.176 730.599 353.175 732.438 350.24 735.526C348.815 737.021 347.711 738.794 346.994 740.735C346.277 742.675 345.963 744.743 346.071 746.81C346.179 748.877 346.707 750.9 347.622 752.755C348.537 754.61 349.82 756.256 351.392 757.594L352.147 758.256C355.37 761.038 359.533 762.472 363.777 762.262C368.021 762.051 372.023 760.213 374.958 757.125Z" fill="#595959"></path>
<path d="M362.263 788.228L377.991 802.021L422.651 754.119L406.923 740.326C401.652 735.787 395.134 732.961 388.231 732.223C381.329 731.484 374.365 732.867 368.261 736.188C365.132 737.875 362.3 740.065 359.875 742.671C356.955 745.765 354.693 749.424 353.226 753.425C351.759 757.427 351.117 761.686 351.341 765.944C351.564 770.203 352.648 774.371 354.525 778.194C356.403 782.018 359.036 785.418 362.263 788.187V788.228Z" fill="#0096FA"></path>
<path d="M377.166 801.8C381.915 806.062 395.941 798.945 408.486 785.883C421.03 772.821 427.385 758.767 422.636 754.505C418.889 751.125 409.337 754.863 399.304 763.042C396.49 765.341 393.809 767.8 391.275 770.408C388.38 773.432 385.702 776.658 383.26 780.062C376.329 789.814 373.584 798.572 377.166 801.8Z" fill="#1E6BF1"></path>
<path d="M383.314 779.993C385.167 781.993 387.627 783.317 390.31 783.759C392.993 784.201 395.746 783.735 398.137 782.434C399.484 781.722 400.674 780.744 401.636 779.557C402.597 778.371 403.309 777.002 403.73 775.531C404.15 774.061 404.271 772.52 404.083 771.002C403.895 769.484 403.404 768.019 402.638 766.697C401.797 765.246 400.65 763.998 399.276 763.042C396.471 765.341 393.799 767.8 391.274 770.407C388.401 773.411 385.741 776.614 383.314 779.993Z" fill="white"></path>
<path fill-rule="evenodd" clip-rule="evenodd" d="M337.635 718.835L249.54 777.802L291.287 913.225L299.751 910.616L259.947 781.495L336.986 729.928L351.769 742.549L357.521 735.813L337.635 718.835Z" fill="#595959"></path>
<path d="M338.394 735.002C332.784 735.002 328.237 730.599 328.237 725.167C328.237 719.736 332.784 715.333 338.394 715.333C344.003 715.333 348.55 719.736 348.55 725.167C348.55 730.599 344.003 735.002 338.394 735.002Z" fill="#595959"></path>
<path d="M333.315 725.167C333.315 726.52 333.85 727.818 334.803 728.775C335.755 729.733 337.047 730.27 338.394 730.27C339.74 730.27 341.032 729.733 341.984 728.775C342.937 727.818 343.472 726.52 343.472 725.167C343.472 723.813 342.937 722.515 341.984 721.558C341.032 720.601 339.74 720.064 338.394 720.064C337.047 720.064 335.755 720.601 334.803 721.558C333.85 722.515 333.315 723.813 333.315 725.167Z" fill="#8C8C8C"></path>
<path d="M254.467 928.678H359.516C359.516 923.114 357.316 917.778 353.401 913.844C349.487 909.909 344.177 907.699 338.64 907.699H275.343C269.806 907.699 264.496 909.909 260.582 913.844C256.667 917.778 254.467 923.114 254.467 928.678Z" fill="#0096FA"></path>
<path d="M318.906 902.458H337.859V908.224H318.906V902.458Z" fill="#595959"></path>
<path d="M255.552 794.765C247.699 794.765 241.333 788.602 241.333 781C241.333 773.398 247.699 767.235 255.552 767.235C263.405 767.235 269.771 773.398 269.771 781C269.771 788.602 263.405 794.765 255.552 794.765Z" fill="#595959"></path>
<path d="M248.442 781C248.393 782.422 248.767 783.827 249.518 785.034C250.269 786.242 251.361 787.196 252.655 787.775C253.949 788.354 255.386 788.531 256.78 788.284C258.175 788.037 259.465 787.377 260.484 786.389C261.503 785.4 262.205 784.128 262.5 782.736C262.795 781.344 262.67 779.894 262.14 778.574C261.61 777.254 260.699 776.124 259.525 775.327C258.352 774.53 256.968 774.104 255.551 774.104C254.634 774.087 253.722 774.252 252.868 774.59C252.014 774.928 251.235 775.431 250.575 776.072C249.915 776.712 249.387 777.477 249.021 778.322C248.655 779.168 248.458 780.078 248.442 781Z" fill="#8C8C8C"></path>
</g>
<path d="M111 574.898V453.421C111 442.733 119.733 434 130.421 434H259.458C270.146 434 278.879 442.733 278.879 453.421V474.927H305.729C309.9 474.927 311.985 480.01 308.987 482.878L278.879 512.986V574.768C278.879 585.455 270.146 594.188 259.458 594.188H130.421C119.733 594.319 111 585.586 111 574.898Z" fill="#1968F0"></path>
<path d="M215.533 495.651H239.516V554.825H215.533V495.651Z" fill="#C5D9FB"></path>
<path d="M181.254 510.249H205.236V554.825H181.254V510.249Z" fill="#0096FA"></path>
<path d="M146.974 478.055H170.956V554.956H146.974V478.055Z" fill="#35DE90"></path>
<defs>
<filter id="filter0_f_6_4682" x="205.331" y="1022.67" width="206" height="39.3334" filterUnits="userSpaceOnUse" color-interpolation-filters="sRGB">
<feFlood flood-opacity="0" result="BackgroundImageFix"></feFlood>
<feBlend mode="normal" in="SourceGraphic" in2="BackgroundImageFix" result="shape"></feBlend>
<feGaussianBlur stdDeviation="4.66667" result="effect1_foregroundBlur_6_4682"></feGaussianBlur>
</filter>
<filter id="filter1_f_6_4682" x="742.667" y="1015.83" width="98.529" height="33.7589" filterUnits="userSpaceOnUse" color-interpolation-filters="sRGB">
<feFlood flood-opacity="0" result="BackgroundImageFix"></feFlood>
<feBlend mode="normal" in="SourceGraphic" in2="BackgroundImageFix" result="shape"></feBlend>
<feGaussianBlur stdDeviation="4.66667" result="effect1_foregroundBlur_6_4682"></feGaussianBlur>
</filter>
<linearGradient id="paint0_linear_6_4682" x1="418.615" y1="-205.708" x2="997.832" y2="1039.32" gradientUnits="userSpaceOnUse">
<stop stop-color="white"></stop>
<stop offset="0.147721" stop-color="#F7FAFE"></stop>
<stop offset="0.304044" stop-color="#E2ECFD"></stop>
<stop offset="0.677979" stop-color="#FAFCFF"></stop>
<stop offset="0.967346" stop-color="#C5D9FB"></stop>
</linearGradient>
<linearGradient id="paint1_linear_6_4682" x1="810.847" y1="107.658" x2="775.341" y2="19.7067" gradientUnits="userSpaceOnUse">
<stop stop-color="#0D4FC1"></stop>
<stop offset="0.482673" stop-color="#135CD8"></stop>
<stop offset="1" stop-color="#1A69F1"></stop>
</linearGradient>
<linearGradient id="paint2_linear_6_4682" x1="618.35" y1="136.299" x2="611.703" y2="137.795" gradientUnits="userSpaceOnUse">
<stop offset="0.0105566" stop-color="#0012FF" stop-opacity="0.2"></stop>
<stop offset="0.5203" stop-color="#0012FF" stop-opacity="0"></stop>
</linearGradient>
<linearGradient id="paint3_linear_6_4682" x1="627.613" y1="136.299" x2="634.26" y2="137.795" gradientUnits="userSpaceOnUse">
<stop offset="0.0105566" stop-color="#0012FF" stop-opacity="0.2"></stop>
<stop offset="0.5203" stop-color="#0012FF" stop-opacity="0"></stop>
</linearGradient>
<linearGradient id="paint4_linear_6_4682" x1="489.514" y1="220.009" x2="1154.51" y2="851.066" gradientUnits="userSpaceOnUse">
<stop stop-color="#1968F0"></stop>
<stop offset="0.2912" stop-color="#125BD8"></stop>
<stop offset="0.5885" stop-color="#0E51C6"></stop>
<stop offset="0.8048" stop-color="#0C4EC0"></stop>
</linearGradient>
<linearGradient id="paint5_linear_6_4682" x1="474.655" y1="314.595" x2="188.638" y2="-75.9004" gradientUnits="userSpaceOnUse">
<stop stop-color="white"></stop>
<stop offset="0.2431" stop-color="#F7FAFE"></stop>
<stop offset="0.6155" stop-color="#E2ECFD"></stop>
<stop offset="1" stop-color="#C5D9FB"></stop>
</linearGradient>
<linearGradient id="paint6_linear_6_4682" x1="195.22" y1="226.687" x2="287.895" y2="421.186" gradientUnits="userSpaceOnUse">
<stop offset="0.2356" stop-color="#1968F0"></stop>
<stop offset="0.7158" stop-color="#1056CE"></stop>
<stop offset="0.9878" stop-color="#0C4EC0"></stop>
</linearGradient>
<linearGradient id="paint7_linear_6_4682" x1="503.302" y1="835.739" x2="407.627" y2="912.75" gradientUnits="userSpaceOnUse">
<stop offset="0.1453" stop-color="#FACF23"></stop>
<stop offset="0.989583" stop-color="#93822D"></stop>
</linearGradient>
<linearGradient id="paint8_linear_6_4682" x1="550.253" y1="597.008" x2="523.939" y2="558.559" gradientUnits="userSpaceOnUse">
<stop offset="0.635417" stop-color="#F89A9A" stop-opacity="0"></stop>
<stop offset="1" stop-color="#753103"></stop>
</linearGradient>
<linearGradient id="paint9_linear_6_4682" x1="671.885" y1="781.167" x2="595.107" y2="729.793" gradientUnits="userSpaceOnUse">
<stop stop-color="#C5D9FB"></stop>
<stop offset="0.1836" stop-color="#D9E4F9"></stop>
<stop offset="0.4073" stop-color="#E9EEF7"></stop>
<stop offset="0.66" stop-color="#F2F3F5"></stop>
<stop offset="1" stop-color="#F5F5F5"></stop>
</linearGradient>
<linearGradient id="paint10_linear_6_4682" x1="563.754" y1="1129" x2="564.458" y2="688.424" gradientUnits="userSpaceOnUse">
<stop offset="0.108095" stop-color="#DAF2F4"></stop>
<stop offset="1" stop-color="#DAF2F4" stop-opacity="0"></stop>
</linearGradient>
<clipPath id="clip0_6_4682">
<rect width="25.521" height="25.4854" fill="white" transform="translate(610.23 115.211)"></rect>
</clipPath>
<clipPath id="clip1_6_4682">
<rect width="720" height="720" fill="white" transform="translate(172 344)"></rect>
</clipPath>
</defs>
</svg>