<?xml version="1.0" encoding="utf-8"?>
<!-- Generator: Adobe Illustrator 27.6.1, SVG Export Plug-In . SVG Version: 6.00 Build 0)  -->
<svg version="1.1" id="Layer_1" xmlns="http://www.w3.org/2000/svg" xmlns:xlink="http://www.w3.org/1999/xlink" x="0px" y="0px"
	 viewBox="0 0 1920 719.18" style="enable-background:new 0 0 1920 719.18;" xml:space="preserve">
<style type="text/css">
	.st0{fill-rule:evenodd;clip-rule:evenodd;fill:#FFFFFF;}
	.st1{fill:#FFFFFF;}
	.st2{fill:#999999;}
	.st3{fill:#0096FA;}
	.st4{fill-rule:evenodd;clip-rule:evenodd;fill:#1D2751;}
	.st5{fill:#1D2751;}
	.st6{fill-rule:evenodd;clip-rule:evenodd;}
</style>
<g>
	<path class="st6" d="M312.6,445.9c-0.2-0.21-0.38-0.43-0.59-0.63c-4.88-4.74-10.98-7.37-17.22-7.97v-49.33
		c6.74-0.65,13.28-3.64,18.3-9.03c8.63-9.25,10.19-22.7,4.9-33.5l44.38-29.98c2.42,3.05,5.41,5.57,8.77,7.42L312.6,445.9z
		 M221.53,315.73l44.43,30.01c-5.36,11.27-3.28,25.22,6.13,34.3c4.9,4.72,11,7.35,17.25,7.94v49.32
		c-6.54,0.62-12.88,3.49-17.83,8.58L212.98,322.9C216.3,321.07,219.19,318.62,221.53,315.73z M378.94,268.02
		c-6.69,1.44-12.35,5.12-16.38,10.12l-44.97-30.37c4.54-8.63,4.63-19.15,0-27.92l44.98-30.37c4.86,5.97,11.91,9.85,19.62,10.6v67.46
		C381.11,267.63,380.03,267.78,378.94,268.02z M312,337.18c-4.88-4.74-10.98-7.37-17.22-7.97v-29.57h61.27
		c0.11,1.11,0.25,2.23,0.48,3.36c0.59,2.84,1.57,5.48,2.85,7.9l-44.24,29.89C314.2,339.53,313.17,338.31,312,337.18z M228.08,299.65
		h61.25v29.57c-6.74,0.64-13.28,3.65-18.29,9.03c-0.83,0.89-1.58,1.84-2.28,2.8l-44.2-29.85
		C226.47,307.67,227.71,303.75,228.08,299.65z M205.17,199.56c6.69-1.44,12.33-5.13,16.36-10.11l45,30.39
		c-4.54,8.63-4.63,19.15-0.01,27.92l-44.95,30.36c-4.86-5.99-11.93-9.89-19.65-10.62v-67.45C203,199.94,204.08,199.79,205.17,199.56
		z M228.06,294.2c-0.1-1.13-0.25-2.26-0.48-3.39c-0.61-2.93-1.63-5.66-2.98-8.16l44.9-30.32c0.23,0.29,0.44,0.6,0.69,0.89
		c5.09,5.93,12,9.28,19.14,9.96v31.01H228.06z M356.03,294.2h-61.25v-31.01c5.84-0.55,11.58-2.88,16.34-7.11
		c1.3-1.15,2.45-2.42,3.5-3.74l44.91,30.34C357.63,286.19,356.4,290.09,356.03,294.2z M356.53,176.73c0.61,2.95,1.64,5.7,3,8.21
		l-44.92,30.34c-0.24-0.29-0.44-0.6-0.69-0.88c-10.53-12.3-28.85-13.57-40.92-2.87c-1.3,1.16-2.46,2.42-3.5,3.75l-44.94-30.35
		c1.92-3.53,3.15-7.45,3.52-11.55h127.97C356.16,174.49,356.3,175.61,356.53,176.73z M390.9,199.56
		c15.69-3.39,25.7-19.05,22.4-35.02c-3.29-15.94-18.71-26.17-34.37-22.8c-12.75,2.73-21.77,13.62-22.91,26.17H228.06
		c-0.1-1.12-0.25-2.25-0.48-3.38c-3.29-15.94-18.7-26.17-34.36-22.8c-15.68,3.36-25.71,19.03-22.4,34.98
		c2.67,12.97,13.34,22.15,25.66,23.33v67.46c-1.08,0.11-2.17,0.26-3.25,0.49c-15.68,3.36-25.71,19.03-22.4,34.98
		c3.29,15.96,18.68,26.17,34.36,22.83c1.14-0.25,2.24-0.58,3.31-0.94l59.6,125.24c-7.84,11.77-6.46,27.89,4.01,37.98
		c11.62,11.2,29.98,10.72,41-1.09c9.56-10.25,10.47-25.68,2.96-36.91l59.6-125.24c4.76,1.65,9.98,2.08,15.26,0.96
		c15.69-3.39,25.7-19.05,22.4-35.02c-2.68-12.95-13.35-22.13-25.66-23.31v-67.45C388.73,199.94,389.81,199.79,390.9,199.56z"/>
	<path d="M1402.02,323.28L1402.02,323.28c-0.02-0.56-0.06-1.14-0.08-1.75h-27.34v5.2c0,3.85-0.01,7.71-0.03,11.57
		c-0.04,10.5-0.07,21,0.16,31.5c0.08,4.04-1.42,5.34-4.84,6.03c-12.2,2.35-24.41,2.74-36.64,0.9
		c-15.59-2.37-26.28-11.65-29.59-26.67c-3.52-15.94-3.66-32.12-0.05-48.12c3.05-13.37,11.24-22.45,24.44-25.85
		c6.55-1.69,13.42-2.49,20.2-2.82c16.14-0.77,31.9,2.09,47.63,7.29c0.31-2.45,0.62-4.84,0.9-7.19v-0.01v-0.02v-0.03
		c0.7-5.58,1.36-10.94,2.09-16.29c0.35-2.55-0.27-3.78-2.92-4.59c-25.31-7.68-50.96-9.18-76.71-3.17
		c-23.05,5.39-39.39,19.23-46.56,42.63c-6.21,20.27-6.28,41.02-1.83,61.66c3.66,17.07,12.15,31.14,27.21,40.31
		c11.11,6.75,23.34,9.8,36.15,11.03c21.69,2.06,42.89,0.29,63.67-6.62c3.29-1.08,4.35-2.7,4.33-6.22
		c-0.1-14.47-0.08-28.94-0.08-43.4c0.01-7.45,0.01-14.9,0-22.35C1402.13,325.3,1402.08,324.32,1402.02,323.28z"/>
	<path d="M630.35,313.63c5.77,1.79,11.54,3.59,17,6.11c21.93,10.14,30.08,30.47,21.81,53.57c-5.57,15.5-17.37,24.3-32.36,28.42
		c-27.36,7.52-53.93,4.24-79.53-7.97c-0.24-0.11-0.47-0.29-0.71-0.49c-0.14-0.11-0.28-0.22-0.43-0.33c0.97-6.74,1.96-13.45,3-20.49
		l0-0.03c0.3-2.02,0.6-4.08,0.91-6.16c0.64,0.28,1.23,0.54,1.81,0.79c0.97,0.42,1.88,0.81,2.77,1.22
		c18.57,8.65,37.87,12.75,58.25,9.42c6.19-1.03,12-3.34,16-8.72c5.66-7.59,4.48-17.01-3.81-21.28c-5.75-2.96-11.96-5.01-18.16-7.05
		c-1.84-0.61-3.69-1.21-5.51-1.84c-3.48-1.2-7.01-2.27-10.54-3.35c-6.02-1.84-12.03-3.67-17.81-6.09
		c-16.35-6.87-26.42-18.85-25.98-37.8c0.42-19.03,11.02-33.72,29.08-40.58c14.85-5.63,30.33-6.05,45.74-4.23
		c7.89,0.93,15.68,2.85,23.45,4.77c2.5,0.62,5.01,1.24,7.51,1.82c1.22,0.28,3.15,2.08,3.05,2.98c-0.66,6.17-1.56,12.31-2.41,18.09
		c-0.26,1.76-0.51,3.49-0.75,5.17c-3.82-0.65-7.58-1.31-11.29-1.97c-8.46-1.5-16.71-2.97-25-4.06c-9.98-1.3-20.03-0.74-29.48,3.34
		c-7.36,3.15-11.5,9.89-9.11,16.38c1.33,3.64,4.65,7.73,8.07,9.12c6.28,2.57,12.78,4.53,19.29,6.5c3.32,1,6.64,2.01,9.94,3.09
		C626.86,312.54,628.61,313.08,630.35,313.63z"/>
	<path d="M882.36,248.84h-31.24v153.48h31.24V248.84z"/>
	<path d="M1075.94,248.89h-31.32v153.55h31.32V248.89z"/>
	<path d="M909.34,248.84h30.82v125.92h79.12v27.72H909.34V248.84z"/>
	<path d="M692.92,276.77h49.85v125.8h31.71V276.57h49.66v-27.69H692.92V276.77z"/>
	<path d="M1537.85,248.84h31.3v5.27c0,7.89,0.01,15.79,0.04,23.68v0.02c0.04,20.33,0.08,40.67-0.17,60.99
		c-0.13,8.72-1.04,17.6-3.05,26.04c-4.57,19.12-17.13,31.32-35.46,36.6c-22.18,6.44-44.62,6.5-66.49-1.63
		c-20.93-7.76-32.52-24.18-33.59-46.15c-1.09-22.54-1.09-45.14-1.07-67.75c0-9.34,0-18.68-0.07-28.02c-0.04-2.13-0.02-4.25-0.02-6.5
		v-0.01c0-0.82,0-1.65,0-2.5h31.53v5.69c0.01,8.26,0.01,16.52,0.01,24.78c-0.01,22.14-0.02,44.29,0.23,66.43
		c0.2,17.99,10.69,29.42,28.42,30.93c8.18,0.68,16.69,0.53,24.75-0.97c14.61-2.69,23.1-13.1,23.29-28.16
		c0.29-21.82,0.3-43.66,0.33-65.49c0.01-9.03,0.02-18.06,0.05-27.09V248.84z"/>
	<path d="M1627.34,375.61v-40.35h70.37v-24.32h-70.24v-35.21h82.76v-26.74h-114.09v153.57h117.82v-26.95H1627.34z"/>
	<path d="M1211.91,350.47c0.41,0.44,0.85,0.91,1.34,1.44V248.91h27.51v153.8c-1.65,0-3.31,0.01-4.97,0.01
		c-4.97,0.02-9.94,0.04-14.9-0.12c-1.07-0.02-2.29-1.27-3.09-2.26c-20.56-24.9-41.09-49.82-61.62-74.75
		c-7.99-9.7-15.98-19.4-23.98-29.1c-0.12-0.14-0.27-0.24-0.58-0.46c-0.18-0.13-0.42-0.29-0.75-0.53v106.87h-27.96V248.55
		c2.1,0,4.21,0.02,6.32,0.03c5.06,0.04,10.14,0.08,15.22-0.11c3.73-0.14,6,1.24,8.34,4.15c20.13,25.12,40.36,50.17,60.6,75.2
		c5.46,6.76,10.92,13.51,16.38,20.27C1210.4,348.86,1211.08,349.58,1211.91,350.47z"/>
</g>
<g>
	<path class="st3" d="M1322.24,512.56c0,22.1-11.4,37.17-31.68,37.17c-10.56,0-18.73-4.22-23.93-12.39l-2.25,11.12h-18.3l2.11-15.21
		v-85.46h19.43v38.86c5.21-7.18,13.09-10.84,22.95-10.84C1310.83,475.81,1322.24,490.87,1322.24,512.56z M1302.67,512.56
		c0-12.95-6.48-20.56-17.6-20.56c-10.98,0-17.46,7.6-17.46,20.56c0,13.38,6.48,20.98,17.46,20.98
		C1296.19,533.53,1302.67,525.93,1302.67,512.56z"/>
	<path class="st3" d="M1381.51,477.08h19.29v58.71c0,32.38-17.6,40.83-38.86,40.83h-14.5v-15.35h14.5
		c11.69,0,19.57-4.65,19.57-19.99v-3.52c-4.65,6.05-11.4,9.15-20.27,9.15c-18.58,0-26.05-11.4-26.05-32.1v-37.73h19.43v35.9
		c0,12.39,4.22,17.74,13.09,17.74c9.71,0,13.8-6.05,13.8-17.88V477.08z"/>
	<path class="st3" d="M1537.22,519.6c0,16.89-10.98,28.86-32.24,28.86h-50.97V449.9h45.05c23.37,0,33.51,10.42,33.51,24.22
		c0,9.43-4.08,16.47-14.78,19.57C1531.02,497.35,1537.22,506.36,1537.22,519.6z M1474,466.66v22.39h22.67
		c11.97,0,15.63-4.79,15.63-11.4c0-6.05-3.66-10.98-15.21-10.98H1474z M1499.06,531.56c12.39,0,17.74-5.07,17.74-13.66
		c0-8.59-5.35-13.66-18.3-13.66H1474v27.31H1499.06z"/>
	<path class="st3" d="M1575.37,549.16c-18.58,0-25.34-8.31-25.34-30.41v-70.96h19.43v71.52c0,8.59,0.42,12.95,9.57,12.95h6.62v16.9
		H1575.37z"/>
	<path class="st3" d="M1595.92,455.54c0-6.2,3.94-10,11.69-10c7.88,0,11.69,3.8,11.69,10c0,6.48-3.8,10.56-11.69,10.56
		C1599.86,466.09,1595.92,462.01,1595.92,455.54z M1597.75,548.46v-71.38h19.43v71.38H1597.75z"/>
	<path class="st3" d="M1709.11,512.84c0,21.82-11.4,36.89-31.68,36.89c-9.86,0-17.74-3.66-22.95-10.84v38.86h-19.43v-85.46
		l-2.11-15.21h18.3l2.25,11.12c5.21-8.17,13.38-12.39,23.93-12.39C1697.71,475.81,1709.11,490.87,1709.11,512.84z M1689.55,512.84
		c0-13.24-6.48-20.84-17.6-20.84c-10.98,0-17.46,7.6-17.46,20.84c0,13.09,6.48,20.7,17.46,20.7
		C1683.07,533.53,1689.55,525.93,1689.55,512.84z"/>
</g>
</svg>
